<svg preserveAspectRatio="none" width="100%" height="100%" overflow="visible" style="display: block;" viewBox="0 0 68 66" fill="none" xmlns="http://www.w3.org/2000/svg">
<g id="&#208;&#187;&#208;&#190;&#208;&#179;&#208;&#190;&#209;&#130;&#208;&#184;&#208;&#191;" clip-path="url(#clip0_141_6)">
<path id="Vector" d="M2.57608 0.57467C2.51597 0.618206 2.45586 0.670448 2.39575 0.731398C1.97499 1.16675 1.70021 1.74142 1.41684 2.28127C1.06477 2.94301 0.781405 3.63958 0.558144 4.35356C-0.180333 6.73931 -7.17085e-06 8.75066 0.0686884 9.52559C0.463688 14.0533 0.661187 18.5897 1.00467 23.1174C1.49412 29.5607 1.9664 36.004 2.83368 42.4124C3.64086 48.4029 4.29346 55.1335 7.70248 60.2533C9.18802 62.4823 11.2145 64.3369 13.7477 65.2512C17.3628 66.5573 22.2488 65.8868 25.9497 65.3383C31.0246 64.5894 36.0566 63.353 41.0112 62.047C47.46 60.3404 53.8917 58.6425 60.2288 56.5092C62.4013 55.7778 64.5824 55.0029 66.5488 53.81C67.2787 53.366 68.0687 52.7042 68 51.8422C67.8798 50.3272 65.4325 49.6393 64.2389 49.4129C59.2843 48.4813 54.218 51.0673 49.5724 52.4691C44.6092 53.9667 39.5858 55.2728 34.5195 56.3873C26.422 58.1723 15.7742 61.1763 12.1162 50.9106C10.8367 47.3058 10.4761 43.257 9.88356 39.4955C9.23954 35.3858 8.68139 31.2586 8.26063 27.114C7.80552 22.595 7.47063 18.0673 7.18726 13.5396C7.04987 11.2931 6.92107 9.05541 6.80085 6.80897C6.74933 5.80765 6.64629 4.79763 6.61194 3.79631C6.57759 2.79499 6.69781 1.8285 6.25987 0.940369C5.95074 0.269921 5.30672 0 4.61118 0C4.2677 0 3.92423 0.069657 3.58934 0.156728C3.21151 0.252507 2.87662 0.348285 2.58466 0.57467H2.57608Z" fill="var(--fill-0, black)"/>
<path id="Vector_2" d="M16.0318 15.2897C16.6587 23.5092 17.629 31.6765 19.0372 39.8003C19.4666 42.247 20.0247 44.8504 21.7937 46.5657C23.1418 47.8805 25.0481 48.4813 26.9201 48.5858C28.792 48.6902 30.6468 48.3333 32.4844 47.9501C40.9683 46.1826 49.3148 43.8317 57.6527 41.4807C58.0649 41.3676 58.5372 41.2021 58.7089 40.8016C58.8893 40.3749 58.6574 39.8873 58.3654 39.5391C56.7855 37.6061 53.9002 37.5712 51.453 37.9021C44.9269 38.7902 38.6069 41.115 32.0207 41.4111C30.2003 41.4895 28.1652 41.3327 26.9115 39.9918C26.0442 39.0689 25.7179 37.7715 25.4431 36.5264C23.9919 30.0396 22.9185 23.4744 22.2316 16.8657C21.9053 13.766 21.5189 9.34275 17.9639 8.28048C17.1996 8.0541 16.3066 8.08022 15.9116 8.9074C15.654 9.43853 15.6883 10.0567 15.7227 10.6401C15.8171 12.19 15.9202 13.7311 16.0404 15.281L16.0318 15.2897Z" fill="var(--fill-0, black)"/>
<path id="Vector_3" d="M49.5037 4.36229C48.7309 3.83986 46.2149 8.80292 42.0159 10.5705C36.1339 13.0433 29.3845 8.20213 28.8521 9.25569C28.3541 10.2396 35.2065 12.7298 36.8122 18.4678C38.3149 23.8575 34.4336 29.3691 35.2236 29.7784C36.0652 30.2137 38.8302 22.891 44.0682 22.2554C45.2446 22.1161 46.6529 22.4731 49.4694 23.161C53.1789 24.0752 55.2656 25.1201 55.4802 24.737C55.6434 24.4496 54.7589 23.8488 54.6044 23.7182C53.823 23.0478 53.0759 22.3599 52.346 21.6372C50.7746 20.0786 49.2375 18.4243 48.2586 16.4042C47.4944 14.8108 47.6919 13.4264 48.0525 11.772C48.4991 9.72587 48.9971 7.69711 49.478 5.65965C49.5896 5.18946 49.7442 4.52772 49.478 4.35358L49.5037 4.36229Z" fill="var(--fill-0, black)"/>
</g>
<defs>
<clipPath id="clip0_141_6">
<rect width="68" height="66" fill="white"/>
</clipPath>
</defs>
</svg>
