<svg preserveAspectRatio="none" width="100%" height="100%" overflow="visible" style="display: block;" viewBox="0 0 119.596 94.4077" fill="none" xmlns="http://www.w3.org/2000/svg">
<g id="Group 20">
<path id="Vector 28" d="M26.4971 50.3388C26.2041 51.0603 26.7857 53.9684 27.0066 56.8874C27.2301 59.8421 28.0976 62.7145 28.8258 65.6335C29.0165 66.3981 29.5495 67.0875 30.1333 67.3149C30.7171 67.5423 31.4386 67.2537 32.0268 66.8164C34.6237 64.8856 35.0945 60.4143 35.6783 56.9836C36.1858 54.001 36.4064 51.0822 36.4829 47.4329C36.5231 45.52 36.4064 52.2192 36.9902 55.5012C37.5243 58.5038 38.2999 60.681 39.3167 61.63C39.7747 62.0575 40.622 61.5687 41.2102 61.1314C42.2313 60.1169 43.1103 58.512 43.8384 56.6207C44.1336 55.7395 44.2779 55.0179 44.4266 53.3999" stroke="var(--stroke-0, #996F71)" stroke-width="2" stroke-linecap="round"/>
<path id="Vector 29" d="M47.925 43.342C48.0693 44.5009 48.6509 47.4089 48.9439 50.3279C49.0954 51.8375 49.9628 53.2469 50.833 54.3402C51.2629 54.8802 52.2805 54.7119 52.943 54.4233C56.2147 52.998 56.9597 47.5838 57.4713 44.5205C57.7824 42.6579 57.257 40.8712 56.6032 39.4893C55.9735 38.1582 54.7819 37.2241 53.4022 36.5682C52.65 36.2105 51.5896 36.3451 50.8527 36.7059C47.9962 38.1045 48.3623 43.6044 48.7974 47.2668C48.9439 47.9993 49.0882 48.7208 49.2347 49.4533C49.3812 50.1858 49.5255 50.9074 49.6742 51.6508" stroke="var(--stroke-0, #996F71)" stroke-width="2" stroke-linecap="round"/>
<path id="Vector 30" d="M57.1083 41.5928C57.1083 43.1846 57.397 47.5489 57.9086 51.2725C58.5745 56.1186 58.8576 61.4027 60.0186 69.2566C60.8175 74.661 61.3327 78.7461 62.2795 83.3378C63.0148 86.9042 63.5192 90.116 63.235 92.8951C63.1719 93.5119 61.9362 93.4832 61.1294 93.269C57.7041 92.3593 55.9539 88.5417 53.8351 83.9566C52.4271 80.9094 53.1726 74.8716 53.9707 69.5955C54.7714 64.3023 56.811 58.5164 58.2694 54.0734C58.5646 52.9714 58.7089 52.1056 58.8554 51.2266C59.0019 50.3476 59.1462 49.4818 59.2949 48.5897" stroke="var(--stroke-0, #996F71)" stroke-width="2" stroke-linecap="round"/>
<path id="Vector 31" d="M63.6679 43.7793C63.9522 43.3507 66.283 39.861 67.9623 36.0674C68.6632 34.4838 69.0599 32.9997 69.0621 31.6178C69.0631 30.9424 68.487 30.3803 67.9032 30.155C67.3194 29.9298 66.5979 30.0741 66.0097 30.4371C63.4785 31.9991 63.3793 36.039 63.3749 40.119C63.3711 43.6774 65.8501 45.2311 66.8668 46.1057C67.3635 46.533 68.1722 46.4031 68.7603 46.1145C69.7814 45.2486 70.6604 44.0766 71.5328 42.9134C71.9723 42.3274 72.4052 41.7502 72.414 39.4062" stroke="var(--stroke-0, #996F71)" stroke-width="2" stroke-linecap="round"/>
<path id="Vector 32" d="M76.787 36.7825C77.6573 37.9414 79.1135 39.8393 80.2767 40.2788C82.8479 41.2502 84.6498 36.5027 86.4012 33.8045C88.3272 30.8372 89.7574 26.742 89.3989 23.6744C89.2201 22.1448 88.1613 20.7554 87.1446 19.5178C86.1712 18.3329 84.3742 18.4158 83.0645 18.7044C81.7571 18.9925 81.4531 20.8866 81.1623 22.4127C80.8449 24.0784 81.0114 25.6969 81.7373 27.0066C82.0926 27.6476 82.7518 28.0277 83.41 28.1786C86.1338 28.803 88.1482 25.1328 89.8274 22.6533C90.2858 21.9764 90.4834 21.0571 90.7042 20.9718C91.5067 23.0731 93.2471 26.847 95.1472 30.1399C95.5867 30.8002 96.0196 31.3775 96.0284 31.5349" stroke="var(--stroke-0, #996F71)" stroke-width="2" stroke-linecap="round"/>
<path id="Vector 33" d="M88.5942 3.10999C87.4353 3.39861 84.5273 4.85047 81.6083 6.09458C78.8234 7.28154 75.7812 7.77165 72.8622 8.79056C69.894 9.82665 67.0351 11.1214 64.1161 11.8539C61.1982 12.5861 58.0004 13.4566 54.9328 14.0404C52.0084 14.5969 48.8171 15.4944 45.3864 16.662C42.2925 17.715 39.1964 19.7188 36.1287 21.4702C33.2792 23.097 31.0276 25.255 28.6924 27.2273C26.2845 29.2609 23.7421 31.3773 19.4434 35.4552C16.9249 37.8443 15.1359 40.1234 12.9494 42.8215C10.4349 45.9245 8.13911 49.744 6.38771 53.2403C4.83661 56.3367 3.61738 59.216 2.81274 62.2072C1.92471 65.5083 1.28219 68.3994 1.06135 71.3184C0.817818 74.5375 1.27343 78.0201 2.87614 80.504C4.45874 82.9567 6.94964 84.877 9.43351 86.9914C11.6907 88.9128 14.3838 90.2733 17.3028 91.3688C20.1043 92.4201 26.5933 92.3199 32.1624 92.6829C39.448 93.1577 42.6598 92.0313 45.7997 91.0124C49.2447 89.8944 53.2951 88.3929 59.2008 85.9878C62.5674 84.6167 65.3996 82.9966 68.5394 81.0309C71.8318 78.9698 75.169 77.1717 78.5231 75.1995C81.9106 73.2076 84.641 70.6122 87.3457 68.7121C90.375 66.584 93.2471 63.9039 95.6545 61.7896C99.1464 58.7226 103.594 53.5661 106.731 48.607C109.004 45.0153 112.917 39.0039 115.191 35.0441C116.837 32.1776 117.596 28.4911 118.329 25.4234C119.047 22.4133 118.191 18.8704 117.314 15.6584C116.23 11.6855 114.255 8.66375 112.652 6.17986C111.864 4.95808 110.757 3.98897 109.521 3.11655C104.603 -0.356847 94.5852 1.50946 90.8682 1.43294C87.0905 1.35516 83.0754 2.96131 77.397 5.35554C75.357 6.44661 72.6151 8.03403 70.914 9.06825C69.2129 10.1025 68.6357 10.5354 68.0409 10.9815" stroke="var(--stroke-0, #996F71)" stroke-width="2" stroke-linecap="round"/>
</g>
</svg>
